<?xml version="1.0" standalone="no"?>
<svg xmlns:xlink="http://www.w3.org/1999/xlink" id="wave" style="transform:rotate(0deg); transition: 0.3s" viewBox="0 0 1440 100" version="1.1" xmlns="http://www.w3.org/2000/svg"><defs><linearGradient id="sw-gradient-0" x1="0" x2="0" y1="1" y2="0"><stop stop-color="rgba(9, 110, 86, 1)" offset="0%"/><stop stop-color="rgba(180, 236, 216, 1)" offset="100%"/></linearGradient></defs><path style="transform:translate(0, 0px); opacity:1" fill="url(#sw-gradient-0)" d="M0,70L13.3,71.7C26.7,73,53,77,80,65C106.7,53,133,27,160,15C186.7,3,213,7,240,11.7C266.7,17,293,23,320,35C346.7,47,373,63,400,71.7C426.7,80,453,80,480,66.7C506.7,53,533,27,560,23.3C586.7,20,613,40,640,40C666.7,40,693,20,720,18.3C746.7,17,773,33,800,38.3C826.7,43,853,37,880,40C906.7,43,933,57,960,65C986.7,73,1013,77,1040,75C1066.7,73,1093,67,1120,66.7C1146.7,67,1173,73,1200,68.3C1226.7,63,1253,47,1280,38.3C1306.7,30,1333,30,1360,40C1386.7,50,1413,70,1440,68.3C1466.7,67,1493,43,1520,33.3C1546.7,23,1573,27,1600,38.3C1626.7,50,1653,70,1680,71.7C1706.7,73,1733,57,1760,51.7C1786.7,47,1813,53,1840,50C1866.7,47,1893,33,1907,26.7L1920,20L1920,100L1906.7,100C1893.3,100,1867,100,1840,100C1813.3,100,1787,100,1760,100C1733.3,100,1707,100,1680,100C1653.3,100,1627,100,1600,100C1573.3,100,1547,100,1520,100C1493.3,100,1467,100,1440,100C1413.3,100,1387,100,1360,100C1333.3,100,1307,100,1280,100C1253.3,100,1227,100,1200,100C1173.3,100,1147,100,1120,100C1093.3,100,1067,100,1040,100C1013.3,100,987,100,960,100C933.3,100,907,100,880,100C853.3,100,827,100,800,100C773.3,100,747,100,720,100C693.3,100,667,100,640,100C613.3,100,587,100,560,100C533.3,100,507,100,480,100C453.3,100,427,100,400,100C373.3,100,347,100,320,100C293.3,100,267,100,240,100C213.3,100,187,100,160,100C133.3,100,107,100,80,100C53.3,100,27,100,13,100L0,100Z"/></svg>